REM MD5 7ae8a01b1ade3a4a5216218a56f864ec
FILE "Tekken 3 (Japan, Asia).bin" BINARY
  TRACK 01 MODE2/2352
    INDEX 01 00:00:00
  TRACK 02 AUDIO
    INDEX 00 60:10:49
    INDEX 01 60:12:49
  TRACK 03 AUDIO
    INDEX 00 62:47:52
    INDEX 01 62:49:52
REM LEADOUT 65:26:50
